<svg width="192" height="30" viewBox="0 0 192 30" fill="none" xmlns="http://www.w3.org/2000/svg">
<path d="M26.6072 20.1045C21.7531 14.192 14.397 15.5106 12.3097 18.1622C11.1891 20.1755 9.02465 21.5676 6.55932 21.5676C2.93671 21.5676 0 18.6272 0 15C0 11.3728 2.93671 8.43243 6.55932 8.43243C9.02464 8.43243 11.1891 9.82455 12.3097 11.8378C14.397 14.4894 21.7531 15.808 26.6072 9.89549C26.7544 9.68185 26.9106 9.47489 27.0752 9.27516C27.4742 8.79103 27.9228 8.34938 28.4133 7.95802C29.0485 7.45109 29.7539 7.02852 30.5125 6.70727C31.5879 6.25184 32.7702 6 34.0113 6C38.9756 6 43 10.0294 43 15C43 19.9706 38.9756 24 34.0113 24C32.7702 24 31.5879 23.7482 30.5125 23.2927C29.7539 22.9715 29.0485 22.5489 28.4133 22.042C27.9228 21.6506 27.4742 21.209 27.0752 20.7248C26.9106 20.5251 26.7544 20.3181 26.6072 20.1045Z" fill="#1CA66F"/>
<path d="M70.14 10.76C71.5 10.76 72.5933 11.18 73.42 12.02C74.26 12.8467 74.68 14.0067 74.68 15.5V22H71.88V15.88C71.88 15.0133 71.66 14.3533 71.22 13.9C70.78 13.4333 70.18 13.2 69.42 13.2C68.66 13.2 68.0533 13.4333 67.6 13.9C67.16 14.3533 66.94 15.0133 66.94 15.88V22H64.14V15.88C64.14 15.0133 63.92 14.3533 63.48 13.9C63.04 13.4333 62.44 13.2 61.68 13.2C60.9067 13.2 60.2933 13.4333 59.84 13.9C59.4 14.3533 59.18 15.0133 59.18 15.88V22H56.38V10.92H59.18V12.26C59.54 11.7933 60 11.4267 60.56 11.16C61.1333 10.8933 61.76 10.76 62.44 10.76C63.3067 10.76 64.08 10.9467 64.76 11.32C65.44 11.68 65.9667 12.2 66.34 12.88C66.7 12.24 67.22 11.7267 67.9 11.34C68.5933 10.9533 69.34 10.76 70.14 10.76ZM78.757 9.6C78.2637 9.6 77.8504 9.44667 77.517 9.14C77.197 8.82 77.037 8.42667 77.037 7.96C77.037 7.49333 77.197 7.10667 77.517 6.8C77.8504 6.48 78.2637 6.32 78.757 6.32C79.2504 6.32 79.657 6.48 79.977 6.8C80.3104 7.10667 80.477 7.49333 80.477 7.96C80.477 8.42667 80.3104 8.82 79.977 9.14C79.657 9.44667 79.2504 9.6 78.757 9.6ZM80.137 10.92V22H77.337V10.92H80.137ZM89.0434 10.76C90.3634 10.76 91.4301 11.18 92.2434 12.02C93.0568 12.8467 93.4634 14.0067 93.4634 15.5V22H90.6634V15.88C90.6634 15 90.4434 14.3267 90.0034 13.86C89.5634 13.38 88.9634 13.14 88.2034 13.14C87.4301 13.14 86.8168 13.38 86.3634 13.86C85.9234 14.3267 85.7034 15 85.7034 15.88V22H82.9034V10.92H85.7034V12.3C86.0768 11.82 86.5501 11.4467 87.1234 11.18C87.7101 10.9 88.3501 10.76 89.0434 10.76ZM95.4061 16.42C95.4061 15.3 95.6261 14.3067 96.0661 13.44C96.5194 12.5733 97.1328 11.9067 97.9061 11.44C98.6794 10.9733 99.5394 10.74 100.486 10.74C101.206 10.74 101.893 10.9 102.546 11.22C103.199 11.5267 103.719 11.94 104.106 12.46V7.2H106.946V22H104.106V20.36C103.759 20.9067 103.273 21.3467 102.646 21.68C102.019 22.0133 101.293 22.18 100.466 22.18C99.5328 22.18 98.6794 21.94 97.9061 21.46C97.1328 20.98 96.5194 20.3067 96.0661 19.44C95.6261 18.56 95.4061 17.5533 95.4061 16.42ZM104.126 16.46C104.126 15.78 103.993 15.2 103.726 14.72C103.459 14.2267 103.099 13.8533 102.646 13.6C102.193 13.3333 101.706 13.2 101.186 13.2C100.666 13.2 100.186 13.3267 99.7461 13.58C99.3061 13.8333 98.9461 14.2067 98.6661 14.7C98.3994 15.18 98.2661 15.7533 98.2661 16.42C98.2661 17.0867 98.3994 17.6733 98.6661 18.18C98.9461 18.6733 99.3061 19.0533 99.7461 19.32C100.199 19.5867 100.679 19.72 101.186 19.72C101.706 19.72 102.193 19.5933 102.646 19.34C103.099 19.0733 103.459 18.7 103.726 18.22C103.993 17.7267 104.126 17.14 104.126 16.46ZM108.961 16.46C108.961 15.3133 109.194 14.3133 109.661 13.46C110.127 12.5933 110.774 11.9267 111.601 11.46C112.427 10.98 113.374 10.74 114.441 10.74C115.814 10.74 116.947 11.0867 117.841 11.78C118.747 12.46 119.354 13.42 119.661 14.66H116.641C116.481 14.18 116.207 13.8067 115.821 13.54C115.447 13.26 114.981 13.12 114.421 13.12C113.621 13.12 112.987 13.4133 112.521 14C112.054 14.5733 111.821 15.3933 111.821 16.46C111.821 17.5133 112.054 18.3333 112.521 18.92C112.987 19.4933 113.621 19.78 114.421 19.78C115.554 19.78 116.294 19.2733 116.641 18.26H119.661C119.354 19.46 118.747 20.4133 117.841 21.12C116.934 21.8267 115.801 22.18 114.441 22.18C113.374 22.18 112.427 21.9467 111.601 21.48C110.774 21 110.127 20.3333 109.661 19.48C109.194 18.6133 108.961 17.6067 108.961 16.46ZM126.632 22.18C125.565 22.18 124.605 21.9467 123.752 21.48C122.899 21 122.225 20.3267 121.732 19.46C121.252 18.5933 121.012 17.5933 121.012 16.46C121.012 15.3267 121.259 14.3267 121.752 13.46C122.259 12.5933 122.945 11.9267 123.812 11.46C124.679 10.98 125.645 10.74 126.712 10.74C127.779 10.74 128.745 10.98 129.612 11.46C130.479 11.9267 131.159 12.5933 131.652 13.46C132.159 14.3267 132.412 15.3267 132.412 16.46C132.412 17.5933 132.152 18.5933 131.632 19.46C131.125 20.3267 130.432 21 129.552 21.48C128.685 21.9467 127.712 22.18 126.632 22.18ZM126.632 19.74C127.139 19.74 127.612 19.62 128.052 19.38C128.505 19.1267 128.865 18.7533 129.132 18.26C129.399 17.7667 129.532 17.1667 129.532 16.46C129.532 15.4067 129.252 14.6 128.692 14.04C128.145 13.4667 127.472 13.18 126.672 13.18C125.872 13.18 125.199 13.4667 124.652 14.04C124.119 14.6 123.852 15.4067 123.852 16.46C123.852 17.5133 124.112 18.3267 124.632 18.9C125.165 19.46 125.832 19.74 126.632 19.74ZM140.606 10.76C141.926 10.76 142.993 11.18 143.806 12.02C144.619 12.8467 145.026 14.0067 145.026 15.5V22H142.226V15.88C142.226 15 142.006 14.3267 141.566 13.86C141.126 13.38 140.526 13.14 139.766 13.14C138.993 13.14 138.379 13.38 137.926 13.86C137.486 14.3267 137.266 15 137.266 15.88V22H134.466V10.92H137.266V12.3C137.639 11.82 138.113 11.4467 138.686 11.18C139.273 10.9 139.913 10.76 140.606 10.76ZM153.829 10.76C155.149 10.76 156.215 11.18 157.029 12.02C157.842 12.8467 158.249 14.0067 158.249 15.5V22H155.449V15.88C155.449 15 155.229 14.3267 154.789 13.86C154.349 13.38 153.749 13.14 152.989 13.14C152.215 13.14 151.602 13.38 151.149 13.86C150.709 14.3267 150.489 15 150.489 15.88V22H147.689V10.92H150.489V12.3C150.862 11.82 151.335 11.4467 151.909 11.18C152.495 10.9 153.135 10.76 153.829 10.76ZM171.211 16.22C171.211 16.62 171.185 16.98 171.131 17.3H163.031C163.098 18.1 163.378 18.7267 163.871 19.18C164.365 19.6333 164.971 19.86 165.691 19.86C166.731 19.86 167.471 19.4133 167.911 18.52H170.931C170.611 19.5867 169.998 20.4667 169.091 21.16C168.185 21.84 167.071 22.18 165.751 22.18C164.685 22.18 163.725 21.9467 162.871 21.48C162.031 21 161.371 20.3267 160.891 19.46C160.425 18.5933 160.191 17.5933 160.191 16.46C160.191 15.3133 160.425 14.3067 160.891 13.44C161.358 12.5733 162.011 11.9067 162.851 11.44C163.691 10.9733 164.658 10.74 165.751 10.74C166.805 10.74 167.745 10.9667 168.571 11.42C169.411 11.8733 170.058 12.52 170.511 13.36C170.978 14.1867 171.211 15.14 171.211 16.22ZM168.311 15.42C168.298 14.7 168.038 14.1267 167.531 13.7C167.025 13.26 166.405 13.04 165.671 13.04C164.978 13.04 164.391 13.2533 163.911 13.68C163.445 14.0933 163.158 14.6733 163.051 15.42H168.311ZM172.535 16.46C172.535 15.3133 172.768 14.3133 173.235 13.46C173.702 12.5933 174.348 11.9267 175.175 11.46C176.002 10.98 176.948 10.74 178.015 10.74C179.388 10.74 180.522 11.0867 181.415 11.78C182.322 12.46 182.928 13.42 183.235 14.66H180.215C180.055 14.18 179.782 13.8067 179.395 13.54C179.022 13.26 178.555 13.12 177.995 13.12C177.195 13.12 176.562 13.4133 176.095 14C175.628 14.5733 175.395 15.3933 175.395 16.46C175.395 17.5133 175.628 18.3333 176.095 18.92C176.562 19.4933 177.195 19.78 177.995 19.78C179.128 19.78 179.868 19.2733 180.215 18.26H183.235C182.928 19.46 182.322 20.4133 181.415 21.12C180.508 21.8267 179.375 22.18 178.015 22.18C176.948 22.18 176.002 21.9467 175.175 21.48C174.348 21 173.702 20.3333 173.235 19.48C172.768 18.6133 172.535 17.6067 172.535 16.46ZM188.546 13.22V18.58C188.546 18.9533 188.633 19.2267 188.806 19.4C188.993 19.56 189.3 19.64 189.726 19.64H191.026V22H189.266C186.906 22 185.726 20.8533 185.726 18.56V13.22H184.406V10.92H185.726V8.18H188.546V10.92H191.026V13.22H188.546Z" fill="white"/>
</svg>
